<svg width="14" height="15" viewBox="0 0 14 15" fill="none" xmlns="http://www.w3.org/2000/svg">
<path d="M7.8095 7.49927L11.9111 2.61021C11.9798 2.52896 11.922 2.40552 11.8158 2.40552H10.5689C10.4954 2.40552 10.4251 2.43833 10.3767 2.49458L6.99388 6.52739L3.61106 2.49458C3.56419 2.43833 3.49388 2.40552 3.41888 2.40552H2.172C2.06575 2.40552 2.00794 2.52896 2.07669 2.61021L6.17825 7.49927L2.07669 12.3883C2.06129 12.4064 2.05141 12.4286 2.04822 12.4521C2.04503 12.4757 2.04867 12.4997 2.05871 12.5212C2.06874 12.5428 2.08475 12.561 2.10483 12.5737C2.12492 12.5865 2.14823 12.5931 2.172 12.593H3.41888C3.49231 12.593 3.56263 12.5602 3.61106 12.504L6.99388 8.47114L10.3767 12.504C10.4236 12.5602 10.4939 12.593 10.5689 12.593H11.8158C11.922 12.593 11.9798 12.4696 11.9111 12.3883L7.8095 7.49927Z" fill="black" fill-opacity="0.85"/>
</svg>
