<svg width="36" height="36" viewBox="0 0 36 36" fill="none" xmlns="http://www.w3.org/2000/svg">
<path d="M35.2851 16.9597C33.8726 13.984 32.1918 11.5572 30.2426 9.67929L28.1984 11.7236C29.8654 13.3167 31.3174 15.4007 32.573 17.9963C29.2301 24.915 24.4851 28.2016 18.0002 28.2016C16.0537 28.2016 14.2608 27.9019 12.6215 27.3024L10.4065 29.5175C12.6833 30.5688 15.2145 31.0945 18.0002 31.0945C25.7226 31.0945 31.4842 27.0726 35.2851 19.0288C35.4379 18.7054 35.5171 18.352 35.5171 17.9943C35.5171 17.6365 35.4379 17.2831 35.2851 16.9597ZM32.7309 4.07679L31.0181 2.36197C30.9882 2.33209 30.9528 2.30838 30.9138 2.2922C30.8747 2.27603 30.8329 2.2677 30.7907 2.2677C30.7484 2.2677 30.7066 2.27603 30.6676 2.2922C30.6286 2.30838 30.5931 2.33209 30.5633 2.36197L26.1689 6.75429C23.7462 5.51679 21.0233 4.89804 18.0002 4.89804C10.2779 4.89804 4.5163 8.91992 0.715411 16.9637C0.562633 17.2872 0.483398 17.6405 0.483398 17.9983C0.483398 18.356 0.562633 18.7094 0.715411 19.0329C2.23389 22.2311 4.06202 24.7946 6.19979 26.7234L1.94809 30.9739C1.88786 31.0342 1.85402 31.1159 1.85402 31.2011C1.85402 31.2864 1.88786 31.3681 1.94809 31.4284L3.66331 33.1436C3.72359 33.2038 3.80531 33.2377 3.89052 33.2377C3.97573 33.2377 4.05746 33.2038 4.11773 33.1436L32.7309 4.53161C32.7608 4.50176 32.7845 4.46631 32.8007 4.42729C32.8168 4.38827 32.8252 4.34644 32.8252 4.3042C32.8252 4.26196 32.8168 4.22014 32.8007 4.18112C32.7845 4.14209 32.7608 4.10664 32.7309 4.07679ZM3.42746 17.9963C6.77434 11.0775 11.5194 7.7909 18.0002 7.7909C20.1916 7.7909 22.184 8.16697 23.9917 8.93157L21.1671 11.7561C19.8294 11.0424 18.2978 10.7775 16.7981 11.0005C15.2984 11.2236 13.9101 11.9227 12.8381 12.9948C11.766 14.0669 11.0668 15.4552 10.8438 16.9549C10.6208 18.4545 10.8857 19.9862 11.5994 21.3238L8.24769 24.6755C6.39264 23.0383 4.79354 20.82 3.42746 17.9963ZM13.3395 17.9963C13.3402 17.2878 13.508 16.5894 13.8293 15.958C14.1506 15.3265 14.6164 14.7798 15.1887 14.3621C15.761 13.9445 16.4237 13.6677 17.1231 13.5544C17.8224 13.441 18.5387 13.4942 19.2136 13.7096L13.5529 19.3704C13.411 18.9262 13.339 18.4626 13.3395 17.9963Z" fill="#262626"/>
<path d="M17.8397 22.5027C17.7007 22.5027 17.5637 22.4963 17.4279 22.4838L15.3057 24.606C16.5821 25.0949 17.9728 25.2035 19.3097 24.9188C20.6465 24.6341 21.8723 23.9682 22.8388 23.0017C23.8053 22.0352 24.4711 20.8095 24.7558 19.4726C25.0405 18.1358 24.9319 16.7451 24.4431 15.4686L22.3208 17.5909C22.3333 17.7267 22.3397 17.8637 22.3397 18.0027C22.34 18.5937 22.2239 19.179 21.9978 19.7251C21.7718 20.2712 21.4403 20.7675 21.0224 21.1854C20.6045 21.6033 20.1083 21.9348 19.5622 22.1608C19.0161 22.3868 18.4308 22.503 17.8397 22.5027Z" fill="#262626"/>
</svg>
