<svg width="15" height="14" viewBox="0 0 15 14" fill="none" xmlns="http://www.w3.org/2000/svg">
<g clip-path="url(#clip0_9035_578)">
<rect width="14" height="14" transform="translate(0.5)" fill="white" fill-opacity="0.01"/>
<g clip-path="url(#clip1_9035_578)">
<path d="M13.2423 6.35154C13.2376 5.92966 13.236 5.50466 13.2345 5.08122H11.972C11.9673 5.5031 11.9642 5.92654 11.961 6.35154C11.536 6.3531 11.1142 6.35622 10.6923 6.36091V7.62497C11.1142 7.62966 11.5392 7.63279 11.961 7.63747C11.9657 8.05935 11.9657 8.48279 11.9689 8.90466H13.2329C13.2345 8.48279 13.2376 8.05935 13.2407 7.63435C13.6657 7.62966 14.0876 7.6281 14.5095 7.62341V6.35935C14.0892 6.35622 13.6642 6.35622 13.2423 6.35154ZM4.96105 6.35779C4.95948 6.86247 4.96105 7.36872 4.96261 7.87341C5.80948 7.90154 6.65792 7.88904 7.5048 7.90154C7.13136 9.78122 4.57667 10.3906 3.22511 9.16247C1.83448 8.08591 1.90011 5.72497 3.34542 4.72497C4.35636 3.91872 5.7923 4.11716 6.80323 4.8156C7.20011 4.44841 7.57198 4.05466 7.9298 3.64841C7.08917 2.9781 6.05792 2.49997 4.96105 2.54997C2.67042 2.47341 0.565733 4.47966 0.528233 6.77185C0.381358 8.64529 1.61261 10.4812 3.35011 11.1437C5.08136 11.8109 7.30167 11.3562 8.40792 9.79997C9.13761 8.81716 9.29542 7.55154 9.20948 6.36247C7.7923 6.35154 6.37667 6.3531 4.96105 6.35779Z" fill="black" fill-opacity="0.85"/>
</g>
</g>
<defs>
<clipPath id="clip0_9035_578">
<rect width="14" height="14" fill="white" transform="translate(0.5)"/>
</clipPath>
<clipPath id="clip1_9035_578">
<rect width="14" height="14" fill="white" transform="translate(0.5)"/>
</clipPath>
</defs>
</svg>
