<svg width="16" height="16" viewBox="0 0 16 16" fill="none" xmlns="http://www.w3.org/2000/svg">
<path d="M14.1892 5.51702L10.222 4.94046L8.44859 1.34515C8.40015 1.24671 8.32046 1.16702 8.22203 1.11858C7.97515 0.99671 7.67515 1.09827 7.55171 1.34515L5.77828 4.94046L1.81109 5.51702C1.70171 5.53265 1.60171 5.58421 1.52515 5.66233C1.43259 5.75747 1.38159 5.88546 1.38334 6.01818C1.3851 6.1509 1.43948 6.2775 1.53453 6.37015L4.40484 9.16858L3.72671 13.1201C3.71081 13.2121 3.72098 13.3066 3.75608 13.393C3.79117 13.4795 3.84978 13.5544 3.92526 13.6092C4.00074 13.664 4.09007 13.6966 4.18312 13.7032C4.27617 13.7098 4.36922 13.6903 4.45171 13.6467L8.00015 11.7811L11.5486 13.6467C11.6455 13.6983 11.758 13.7155 11.8658 13.6967C12.1377 13.6498 12.3205 13.392 12.2736 13.1201L11.5955 9.16858L14.4658 6.37015C14.5439 6.29358 14.5955 6.19358 14.6111 6.08421C14.6533 5.81077 14.4627 5.55765 14.1892 5.51702Z" fill="#FAAD14"/>
</svg>
